<svg width="977" height="639" viewBox="0 0 977 639" fill="none" xmlns="http://www.w3.org/2000/svg">
<path d="M977 149.5C977 232.067 910.067 299 827.5 299C744.933 299 678 232.067 678 149.5C678 66.9334 744.933 0 827.5 0C910.067 0 977 66.9334 977 149.5ZM714.276 149.5C714.276 212.032 764.968 262.724 827.5 262.724C890.032 262.724 940.724 212.032 940.724 149.5C940.724 86.9681 890.032 36.2759 827.5 36.2759C764.968 36.2759 714.276 86.9681 714.276 149.5Z" fill="white"/>
<path d="M621 489.5C621 572.067 554.067 639 471.5 639C388.933 639 322 572.067 322 489.5C322 406.933 388.933 340 471.5 340C554.067 340 621 406.933 621 489.5ZM358.276 489.5C358.276 552.032 408.968 602.724 471.5 602.724C534.032 602.724 584.724 552.032 584.724 489.5C584.724 426.968 534.032 376.276 471.5 376.276C408.968 376.276 358.276 426.968 358.276 489.5Z" fill="white"/>
<path d="M977 489.5C977 519.068 968.232 547.973 951.805 572.558C935.377 597.143 912.029 616.305 884.711 627.62C857.394 638.935 827.334 641.896 798.334 636.127C769.334 630.359 742.695 616.12 721.788 595.212C700.88 574.305 686.641 547.666 680.873 518.666C675.104 489.666 678.065 459.606 689.38 432.289C700.695 404.971 719.857 381.623 744.442 365.195C769.027 348.768 797.932 340 827.5 340L827.5 489.5H977Z" fill="white"/>
<path fill-rule="evenodd" clip-rule="evenodd" d="M471.5 299C554.067 299 621 232.067 621 149.5C621 66.9334 554.067 0 471.5 0C388.933 0 322 66.9334 322 149.5C322 232.067 388.933 299 471.5 299ZM543.955 91.314L450.387 184.935L411.193 145.443C408.993 143.234 406.372 142.129 403.333 142.129C400.293 142.129 397.669 143.234 395.461 145.443C393.245 147.66 392.093 150.285 392.005 153.32C391.917 156.354 392.977 158.975 395.185 161.185L442.659 208.686C444.867 210.895 447.443 212 450.387 212C453.331 212 455.907 210.895 458.115 208.686L559.688 107.056C561.896 104.854 563 102.232 563 99.1904C563 96.1488 561.896 93.5234 559.688 91.314C557.487 89.1047 554.867 88 551.827 88C548.787 88 546.163 89.1047 543.955 91.314Z" fill="white"/>
<path d="M273 5.76644C280 7.12324 285.194 9.49766 288.581 12.8897C292.194 16.2817 294 20.2391 294 24.7617C294 32.2242 291.855 37.6514 287.565 41.0434C283.5 44.4355 276.952 45.7923 267.919 45.1139C247.597 43.5309 231.677 42.5133 220.161 42.061C208.871 41.3826 193.968 40.9304 175.452 40.7042C167.097 82.313 159.419 124.148 152.419 166.209C149.935 181.586 147.339 199.451 144.629 219.803C141.919 239.929 140.113 256.21 139.21 268.648C138.758 275.206 136.048 280.294 131.081 283.912C126.113 287.304 120.129 289 113.129 289C105.677 289 99.9194 287.191 95.8548 283.573C91.7903 279.955 89.7581 275.206 89.7581 269.326C89.7581 263.899 90.5484 254.967 92.129 242.529C93.9355 229.866 95.9677 216.637 98.2258 202.843C100.71 189.049 102.629 177.063 103.984 166.887C106.468 149.701 109.29 132.628 112.452 115.668C115.613 98.7078 118.774 82.6522 121.935 67.5012C122.613 64.1092 123.403 60.2649 124.306 55.9683C125.21 51.4456 126.226 46.4707 127.355 41.0434C105.226 41.7218 87.8387 43.5309 75.1935 46.4707C62.5484 49.4104 53.5161 53.5939 48.0968 59.0211C42.9032 64.2222 40.3065 71.0063 40.3065 79.3732C40.3065 87.0618 42.5645 94.4112 47.0806 101.421C47.9839 103.004 48.4355 104.7 48.4355 106.509C48.4355 110.806 45.8387 114.876 40.6452 118.721C35.6774 122.339 30.4839 124.148 25.0645 124.148C21.2258 124.148 18.0645 123.017 15.5806 120.756C11.0645 116.912 7.33871 111.484 4.40323 104.474C1.46774 97.2379 0 89.097 0 80.0517C0 60.8302 6.20968 45.4531 18.629 33.9202C31.2742 22.1612 50.3548 13.5681 75.871 8.14086C101.613 2.71362 134.581 0 174.774 0C199.613 0 219.371 0.45227 234.048 1.35681C248.952 2.26135 261.935 3.73123 273 5.76644Z" fill="white"/>
<path d="M88.2345 639C75.2621 639 60.6123 637.882 44.285 635.647C35.3385 634.53 29.1878 632.183 25.8329 628.607C22.478 625.031 21.0242 619.22 21.4715 611.173C23.0371 589.046 26.7275 561.778 32.5427 529.37C38.3579 496.738 45.4033 465.335 53.6788 435.162C55.2444 429.574 58.3756 425.663 63.0725 423.428C67.7694 421.193 73.9201 420.075 81.5246 420.075C95.168 420.075 101.99 423.875 101.99 431.474C101.99 434.603 101.319 438.179 99.9767 442.202C94.1615 460.083 88.3463 484.11 82.5311 514.283C76.7159 544.233 72.5782 572.842 70.1179 600.11C76.8277 600.78 84.4322 601.116 92.9313 601.116C132.072 601.116 161.26 589.27 180.495 565.578C199.953 541.886 209.683 510.26 209.683 470.699C209.683 444.102 202.078 423.539 186.869 409.012C171.66 394.484 150.189 387.22 122.455 387.22C104.562 387.22 86.7807 390.013 69.1114 395.601C51.6658 401.189 35.8977 408.565 21.807 417.728C18.8994 419.74 15.7681 420.746 12.4132 420.746C8.61097 420.746 5.59154 419.181 3.35492 416.052C1.11831 412.699 0 408.676 0 403.983C0 398.618 0.894646 394.26 2.68394 390.908C4.47323 387.331 7.49266 384.091 11.7422 381.185C27.1749 370.68 45.2914 362.746 66.092 357.381C86.8925 351.794 106.91 349 126.145 349C153.432 349 177.028 353.805 196.934 363.416C216.84 372.803 232.161 386.661 242.896 404.988C253.632 423.316 259 445.443 259 471.37C259 505.119 252.29 534.622 238.87 559.879C225.451 584.911 205.88 604.356 180.159 618.214C154.438 632.071 123.797 639 88.2345 639Z" fill="white"/>
</svg>
